<?xml version="1.0" encoding="utf-8"?>
<!-- Generator: Adobe Illustrator 27.5.0, SVG Export Plug-In . SVG Version: 6.00 Build 0)  -->
<svg version="1.1" id="Capa_1" xmlns="http://www.w3.org/2000/svg" xmlns:xlink="http://www.w3.org/1999/xlink" x="0px" y="0px"
	 viewBox="0 0 416.56 291.46" style="enable-background:new 0 0 416.56 291.46;" xml:space="preserve">
<style type="text/css">
	.st0{fill:#D0C7FF;}
</style>
<g>
	<g id="ZkH6N4.tif_00000155857902866060588660000012778278884123686278_">
		<g>
			<path class="st0" d="M63.41,165.42c-9.69-12.65-14.74-27.14-14.39-43.03c0.62-27.61,13.11-48.69,36.76-62.97
				c11.32-6.83,23.79-9.72,37.01-9.71l169.5-0.36c2.13,0,3.24,2.53,1.79,4.09l-30.8,33.22c-5.03,5.34-11.19,8.18-18.64,8.17
				c-49.19-0.02-72.53,0.76-121.73,0.77c-10.16,0-18.59,3.69-24.12,12.45c-5.24,8.31-5.38,17.14-0.77,25.69
				c4.6,8.54,12.04,13.47,21.86,13.51l82.31-0.67c2.15-0.02,3.26,2.55,1.79,4.11l-34.95,37.03c-4.35,4.54-9.84,7.1-16.14,7.13
				l-32.54,0.63C96.78,194.64,77.74,184.14,63.41,165.42z M310.64,239.6c-5,1.15-10.24,1.66-15.38,1.67l-169.39,0.87
				c-2.14,0.01-3.26-2.54-1.79-4.1c9.74-10.36,23.94-25.41,30.4-32.41c5.66-6.13,12.44-9.1,20.87-9.08
				c48.32,0.1,68.83-1.12,117.15-1.07c10.54,0.01,19.41-3.26,25.33-12.42c10.36-16.01-0.86-38.03-19.94-39.19
				c-2.58-0.16-5.17-0.24-7.75-0.24c-30.61-0.01-45.87,0.92-73.46,1.07c-2.14,0.01-3.26-2.53-1.8-4.09
				c10.97-11.75,24.51-26.24,32.56-34.89c5.82-6.27,12.78-9.35,21.4-9.26l25.68-1.03c34.77,0.56,64.42,25.67,71.43,57.86
				C374.27,191.47,350.33,230.4,310.64,239.6z M407.16,122.49c-8.22-19.01-20.63-34.89-36.71-47.85
				C352,59.78,331.11,50.26,307.49,47.51l-0.03,0c-1.59-0.07-2.37-1.97-1.29-3.13l37.31-40.28c1.45-1.56,0.35-4.1-1.78-4.09
				c-72.27,0.13-148.58,0.7-219.59,0.82c-7.43,0.01-14.99,0.55-22.28,1.94C70.1,8.43,45.54,23.08,26.61,46.75
				C11,66.27,2.33,88.59,0.37,113.57c-1.59,20.42,1.91,39.83,10.61,58.33c10.69,22.74,26.99,40.53,48.21,53.8
				c16.14,10.08,33.65,16.59,52.69,18.2c0.16,0.01,0.32,0.03,0.48,0.07c1.29,0.3,1.74,1.92,0.85,2.9l-0.02,0.02l-37.7,40.48
				c-1.45,1.56-0.34,4.1,1.79,4.1c75.81-0.08,138.02-1.06,215-1.22c8.48-0.02,17.06-0.75,25.41-2.23
				c24.99-4.43,46.39-16.15,64-34.28c21.36-21.98,33.05-48.39,34.69-79.17C417.34,156.45,414.36,139.11,407.16,122.49z"/>
		</g>
	</g>
</g>
</svg>
