<?xml version="1.0" encoding="utf-8"?>
<!-- Generator: Adobe Illustrator 27.5.0, SVG Export Plug-In . SVG Version: 6.00 Build 0)  -->
<svg version="1.1" id="Capa_1" xmlns="http://www.w3.org/2000/svg" xmlns:xlink="http://www.w3.org/1999/xlink" x="0px" y="0px"
	 viewBox="0 0 1919.17 291.46" style="enable-background:new 0 0 1919.17 291.46;" xml:space="preserve">
<style type="text/css">
	.st0{fill:#0F0F0F;}
	.st1{fill:#6851FB;}
</style>
<g>
	<g>
		<path class="st0" d="M541.82,242.14c-18.2,0-33.51-4.07-45.94-12.21c-12.43-8.14-21.18-19.21-26.25-33.21l30.98-18.11
			c7.17,18.73,21.26,28.09,42.26,28.09c10.15,0,17.59-1.84,22.31-5.51c4.73-3.68,7.09-8.31,7.09-13.91c0-6.47-2.89-11.5-8.66-15.09
			c-5.78-3.59-16.1-7.48-30.98-11.68c-8.23-2.45-15.18-4.9-20.87-7.35c-5.69-2.45-11.38-5.73-17.06-9.84
			c-5.69-4.11-10.02-9.32-12.99-15.62c-2.98-6.3-4.46-13.65-4.46-22.05c0-16.62,5.91-29.88,17.72-39.77
			c11.81-9.89,26.03-14.83,42.66-14.83c14.87,0,27.96,3.63,39.24,10.89c11.29,7.27,20.08,17.37,26.38,30.32l-30.45,17.59
			c-7.35-15.75-19.08-23.62-35.18-23.62c-7.53,0-13.43,1.7-17.72,5.12c-4.29,3.41-6.43,7.83-6.43,13.26c0,5.77,2.4,10.46,7.22,14.04
			c4.81,3.59,14.04,7.48,27.69,11.68c5.6,1.75,9.84,3.11,12.73,4.07c2.89,0.97,6.83,2.45,11.81,4.46c4.99,2.02,8.84,3.9,11.55,5.64
			c2.71,1.75,5.82,4.12,9.32,7.09c3.5,2.98,6.17,6.04,8.01,9.19c1.84,3.15,3.41,6.96,4.73,11.42c1.31,4.46,1.97,9.32,1.97,14.57
			c0,16.98-6.17,30.45-18.51,40.43C577.65,237.15,561.59,242.14,541.82,242.14z"/>
		<path class="st0" d="M746.04,222.05c-13.48,13.39-29.93,20.08-49.35,20.08c-19.43,0-35.83-6.7-49.22-20.08
			c-13.39-13.39-20.08-29.79-20.08-49.22s6.69-35.83,20.08-49.22c13.39-13.39,29.79-20.08,49.22-20.08
			c19.43,0,35.87,6.7,49.35,20.08c13.47,13.39,20.21,29.79,20.21,49.22S759.52,208.67,746.04,222.05z M671.36,198.82
			c6.73,6.83,15.18,10.24,25.33,10.24c10.15,0,18.64-3.41,25.46-10.24c6.83-6.83,10.24-15.49,10.24-25.99s-3.41-19.16-10.24-25.99
			c-6.82-6.83-15.32-10.24-25.46-10.24c-10.15,0-18.6,3.41-25.33,10.24c-6.74,6.83-10.11,15.49-10.11,25.99
			S664.62,192,671.36,198.82z"/>
		<path class="st0" d="M876.77,107.21h33.86v131.25h-33.86v-14.7c-8.23,12.25-21.26,18.38-39.11,18.38
			c-14.35,0-26.21-4.81-35.57-14.44c-9.36-9.62-14.04-22.92-14.04-39.9v-80.59h33.86v76.39c0,8.75,2.36,15.45,7.09,20.08
			c4.73,4.64,11.03,6.96,18.9,6.96c8.75,0,15.75-2.71,21-8.14c5.25-5.42,7.87-13.56,7.87-24.41V107.21z"/>
		<path class="st0" d="M1014.58,103.53c14.35,0,26.21,4.82,35.57,14.44c9.36,9.63,14.04,22.93,14.04,39.9v80.59h-33.86v-76.39
			c0-8.75-2.36-15.44-7.09-20.08c-4.73-4.64-11.03-6.96-18.9-6.96c-8.75,0-15.75,2.71-21,8.14c-5.25,5.43-7.87,13.56-7.87,24.41
			v70.88h-33.86V107.21h33.86v14.7C983.7,109.66,996.73,103.53,1014.58,103.53z"/>
		<path class="st0" d="M1192.56,54.71h33.86v183.75h-33.86v-15.49c-9.97,12.78-24.15,19.16-42.53,19.16
			c-17.68,0-32.77-6.7-45.28-20.08c-12.52-13.39-18.77-29.79-18.77-49.22s6.25-35.83,18.77-49.22
			c12.51-13.39,27.6-20.08,45.28-20.08c18.38,0,32.55,6.39,42.53,19.16V54.71z M1130.22,199.48c6.91,6.92,15.62,10.37,26.12,10.37
			c10.5,0,19.16-3.45,25.99-10.37c6.83-6.91,10.24-15.79,10.24-26.64c0-10.85-3.41-19.73-10.24-26.64
			c-6.83-6.91-15.49-10.37-25.99-10.37c-10.5,0-19.21,3.46-26.12,10.37c-6.92,6.92-10.37,15.8-10.37,26.64
			C1119.85,183.69,1123.3,192.57,1130.22,199.48z"/>
		<path class="st0" d="M1291.27,129.78c3.15-8.4,8.35-14.7,15.62-18.9c7.26-4.2,15.36-6.3,24.28-6.3v37.8
			c-10.33-1.22-19.56,0.88-27.69,6.3c-8.14,5.43-12.21,14.44-12.21,27.04v62.74h-33.86V107.21h33.86V129.78z"/>
		<path class="st0" d="M1445.62,107.21h33.86v131.25h-33.86v-15.49c-10.15,12.78-24.41,19.16-42.79,19.16
			c-17.5,0-32.51-6.7-45.02-20.08c-12.51-13.39-18.77-29.79-18.77-49.22s6.25-35.83,18.77-49.22
			c12.51-13.39,27.52-20.08,45.02-20.08c18.37,0,32.64,6.39,42.79,19.16V107.21z M1383.14,199.48c6.83,6.92,15.49,10.37,25.99,10.37
			c10.5,0,19.21-3.45,26.12-10.37c6.91-6.91,10.37-15.79,10.37-26.64c0-10.85-3.46-19.73-10.37-26.64
			c-6.91-6.91-15.62-10.37-26.12-10.37c-10.5,0-19.16,3.46-25.99,10.37c-6.83,6.92-10.24,15.8-10.24,26.64
			C1372.9,183.69,1376.31,192.57,1383.14,199.48z"/>
		<path class="st0" d="M1526.99,91.46c-5.6,0-10.46-2.05-14.57-6.17c-4.11-4.11-6.17-8.97-6.17-14.57c0-5.6,2.05-10.5,6.17-14.7
			c4.11-4.2,8.97-6.3,14.57-6.3c5.77,0,10.72,2.1,14.83,6.3c4.11,4.2,6.17,9.1,6.17,14.7c0,5.6-2.06,10.46-6.17,14.57
			C1537.71,89.4,1532.77,91.46,1526.99,91.46z M1510.19,238.46V107.21h33.86v131.25H1510.19z"/>
		<path class="st0" d="M1605.22,144.48c0,3.5,2.32,6.35,6.96,8.53c4.64,2.19,10.28,4.11,16.93,5.77c6.65,1.66,13.3,3.76,19.95,6.3
			c6.65,2.54,12.29,6.78,16.93,12.73c4.64,5.95,6.96,13.39,6.96,22.31c0,13.48-5.03,23.85-15.09,31.11
			c-10.06,7.26-22.62,10.9-37.67,10.9c-26.95,0-45.33-10.41-55.13-31.24l29.4-16.54c3.85,11.38,12.42,17.06,25.73,17.06
			c12.07,0,18.11-3.76,18.11-11.29c0-3.5-2.32-6.34-6.96-8.53c-4.64-2.19-10.28-4.15-16.93-5.91c-6.65-1.75-13.3-3.94-19.95-6.56
			c-6.65-2.63-12.3-6.78-16.93-12.47c-4.64-5.68-6.96-12.82-6.96-21.39c0-12.95,4.77-23.14,14.31-30.58
			c9.54-7.44,21.4-11.16,35.57-11.16c10.67,0,20.38,2.41,29.14,7.22c8.75,4.81,15.66,11.68,20.74,20.6l-28.88,15.75
			c-4.2-8.93-11.2-13.39-21-13.39c-4.38,0-8.01,0.96-10.89,2.89C1606.66,138.54,1605.22,141.16,1605.22,144.48z"/>
		<path class="st0" d="M1721.51,186.74c4.55,16.45,16.89,24.68,37.01,24.68c12.95,0,22.75-4.37,29.4-13.13l27.3,15.75
			c-12.95,18.73-32.03,28.09-57.23,28.09c-21.7,0-39.11-6.56-52.24-19.69s-19.69-29.66-19.69-49.61c0-19.77,6.47-36.27,19.43-49.48
			c12.95-13.21,29.57-19.82,49.87-19.82c19.25,0,35.13,6.65,47.65,19.95c12.51,13.3,18.77,29.75,18.77,49.35
			c0,4.38-0.44,9.02-1.31,13.91H1721.51z M1720.99,160.5h66.94c-1.93-8.93-5.9-15.57-11.94-19.95c-6.04-4.37-12.91-6.56-20.61-6.56
			c-9.1,0-16.63,2.32-22.57,6.96C1726.84,145.58,1722.91,152.1,1720.99,160.5z"/>
		<path class="st0" d="M1879.27,129.78c3.15-8.4,8.35-14.7,15.62-18.9c7.26-4.2,15.36-6.3,24.28-6.3v37.8
			c-10.33-1.22-19.56,0.88-27.69,6.3c-8.14,5.43-12.21,14.44-12.21,27.04v62.74h-33.86V107.21h33.86V129.78z"/>
	</g>
	<g id="ZkH6N4.tif_00000155857902866060588660000012778278884123686278_">
		<g>
			<path class="st1" d="M63.41,165.42c-9.69-12.65-14.74-27.14-14.39-43.03c0.62-27.61,13.11-48.69,36.76-62.97
				c11.32-6.83,23.79-9.72,37.01-9.71l169.5-0.36c2.13,0,3.24,2.53,1.79,4.09l-30.8,33.22c-5.03,5.34-11.19,8.18-18.64,8.17
				c-49.19-0.02-72.53,0.76-121.73,0.77c-10.16,0-18.59,3.69-24.12,12.45c-5.24,8.31-5.38,17.14-0.77,25.69
				c4.6,8.54,12.04,13.47,21.86,13.51l82.31-0.67c2.15-0.02,3.26,2.55,1.79,4.11l-34.95,37.03c-4.35,4.54-9.84,7.1-16.14,7.13
				l-32.54,0.63C96.78,194.64,77.74,184.14,63.41,165.42z M310.64,239.6c-5,1.15-10.24,1.66-15.38,1.67l-169.39,0.87
				c-2.14,0.01-3.26-2.54-1.79-4.1c9.74-10.36,23.94-25.41,30.4-32.41c5.66-6.13,12.44-9.1,20.87-9.08
				c48.32,0.1,68.83-1.12,117.15-1.07c10.54,0.01,19.41-3.26,25.33-12.42c10.36-16.01-0.86-38.03-19.94-39.19
				c-2.58-0.16-5.17-0.24-7.75-0.24c-30.61-0.01-45.87,0.92-73.46,1.07c-2.14,0.01-3.26-2.53-1.8-4.09
				c10.97-11.75,24.51-26.24,32.56-34.89c5.82-6.27,12.78-9.35,21.4-9.26l25.68-1.03c34.77,0.56,64.42,25.67,71.43,57.86
				C374.27,191.47,350.33,230.4,310.64,239.6z M407.16,122.49c-8.22-19.01-20.63-34.89-36.71-47.85
				C352,59.78,331.11,50.26,307.49,47.51l-0.03,0c-1.59-0.07-2.37-1.97-1.29-3.13l37.31-40.28c1.45-1.56,0.35-4.1-1.78-4.09
				c-72.27,0.13-148.58,0.7-219.59,0.82c-7.43,0.01-14.99,0.55-22.28,1.94C70.1,8.43,45.54,23.08,26.61,46.75
				C11,66.27,2.33,88.59,0.37,113.57c-1.59,20.42,1.91,39.83,10.61,58.33c10.69,22.74,26.99,40.53,48.21,53.8
				c16.14,10.08,33.65,16.59,52.69,18.2c0.16,0.01,0.32,0.03,0.48,0.07c1.29,0.3,1.74,1.92,0.85,2.9l-0.02,0.02l-37.7,40.48
				c-1.45,1.56-0.34,4.1,1.79,4.1c75.81-0.08,138.02-1.06,215-1.22c8.48-0.02,17.06-0.75,25.41-2.23
				c24.99-4.43,46.39-16.15,64-34.28c21.36-21.98,33.05-48.39,34.69-79.17C417.34,156.45,414.36,139.11,407.16,122.49z"/>
		</g>
	</g>
</g>
</svg>
